<svg width="34" height="34" viewBox="0 0 34 34" fill="none" xmlns="http://www.w3.org/2000/svg">
    <rect x="1" y="1" width="32" height="32" rx="16" stroke="#677CFB" stroke-width="2" />
    <path
        d="M23.2222 19.8267V12.5556C23.2222 10.5911 21.6311 9 19.6667 9C17.7022 9 16.1111 10.5911 16.1111 12.5556V21.4444C16.1111 22.4222 15.3111 23.2222 14.3333 23.2222C13.3556 23.2222 12.5556 22.4222 12.5556 21.4444V14.1733C13.5867 13.8 14.3333 12.8222 14.3333 11.6667C14.3333 10.1911 13.1422 9 11.6667 9C10.1911 9 9 10.1911 9 11.6667C9 12.8222 9.74667 13.8 10.7778 14.1733V21.4444C10.7778 23.4089 12.3689 25 14.3333 25C16.2978 25 17.8889 23.4089 17.8889 21.4444V12.5556C17.8889 11.5778 18.6889 10.7778 19.6667 10.7778C20.6444 10.7778 21.4444 11.5778 21.4444 12.5556V19.8267C20.4133 20.1911 19.6667 21.1689 19.6667 22.3333C19.6667 23.8089 20.8578 25 22.3333 25C23.8089 25 25 23.8089 25 22.3333C25 21.1778 24.2533 20.2 23.2222 19.8267ZM11.6667 12.5556C11.1778 12.5556 10.7778 12.1556 10.7778 11.6667C10.7778 11.1778 11.1778 10.7778 11.6667 10.7778C12.1556 10.7778 12.5556 11.1778 12.5556 11.6667C12.5556 12.1556 12.1556 12.5556 11.6667 12.5556ZM22.3333 23.2222C21.8444 23.2222 21.4444 22.8222 21.4444 22.3333C21.4444 21.8444 21.8444 21.4444 22.3333 21.4444C22.8222 21.4444 23.2222 21.8444 23.2222 22.3333C23.2222 22.8222 22.8222 23.2222 22.3333 23.2222Z"
        fill="#677CFB" />
</svg>